<?xml version="1.0" standalone="no"?>
<!DOCTYPE svg PUBLIC "-//W3C//DTD SVG 20010904//EN"
 "http://www.w3.org/TR/2001/REC-SVG-20010904/DTD/svg10.dtd">
<svg version="1.0" xmlns="http://www.w3.org/2000/svg"
 width="171.000000pt" height="171.000000pt" viewBox="0 0 171.000000 171.000000"
 preserveAspectRatio="xMidYMid meet">
<metadata>
Created by potrace 1.14, written by Peter Selinger 2001-2017
</metadata>
<g transform="translate(0.000000,171.000000) scale(0.100000,-0.100000)"
fill="#000000" stroke="none">
<path d="M228 1072 c-54 -49 -112 -84 -123 -74 -5 4 -5 1 0 -7 4 -8 8 -27 7
-42 0 -16 2 -29 5 -29 4 0 26 11 50 25 l43 26 1 -178 c1 -98 1 -181 0 -185 0
-5 17 -8 39 -8 l40 0 0 249 c0 152 -4 252 -10 256 -5 3 -29 -12 -52 -33z"/>
<path d="M511 1093 c-18 -9 -38 -27 -43 -39 -9 -20 -7 -27 13 -43 23 -19 24
-19 52 5 34 28 88 32 112 7 13 -12 16 -28 12 -59 -5 -45 -29 -90 -132 -248
-36 -55 -65 -103 -65 -108 0 -12 310 -10 311 2 1 6 2 17 2 25 0 8 -1 19 -2 25
0 5 -41 11 -91 12 l-89 3 50 80 c82 131 101 173 101 226 -1 26 -7 57 -14 69
-33 54 -147 77 -217 43z"/>
<path d="M1083 1077 c-25 -26 -182 -217 -231 -279 -21 -26 -23 -57 -4 -62 9
-2 51 -5 92 -5 133 0 120 8 120 -66 l0 -65 38 0 39 0 -1 63 c-1 58 0 62 23 67
14 3 25 13 27 25 3 22 -14 47 -27 40 -18 -12 -25 36 -24 167 0 94 -3 139 -11
142 -6 2 -25 -10 -41 -27z m-27 -272 c-4 -13 -104 -15 -109 -3 -1 4 5 15 13
25 8 10 33 40 55 67 l40 49 3 -63 c2 -34 1 -68 -2 -75z"/>
<path d="M1332 1093 c-73 -36 -83 -148 -17 -203 14 -12 13 -14 -6 -28 -28 -19
-59 -88 -59 -130 0 -44 25 -97 57 -117 53 -35 163 -28 210 13 66 57 57 185
-16 229 -20 13 -20 13 4 37 56 56 49 150 -14 193 -41 28 -110 30 -159 6z m124
-78 c17 -26 12 -58 -14 -87 -20 -23 -25 -23 -61 8 -33 27 -41 70 -19 92 22 22
76 15 94 -13z m-12 -207 c46 -40 52 -85 16 -123 -31 -33 -73 -33 -107 1 -22
22 -25 32 -20 67 5 39 42 87 66 87 4 0 24 -15 45 -32z"/>
</g>
</svg>
